<svg width="20" height="20" viewBox="0 0 20 20" fill="none" xmlns="http://www.w3.org/2000/svg">
<path d="M13.6402 18.9121L12.7197 12.4686C12.7197 12.2176 12.8871 11.9665 13.1381 11.8828L19.5816 10.9624C19.8326 10.9624 20 10.7113 20 10.3766L19.4979 6.77825C19.4979 6.5272 19.2469 6.35984 18.9121 6.35984L12.4686 7.28033C12.2176 7.28033 11.9666 7.11297 11.8829 6.86192L10.9623 0.41841C10.9623 0.167364 10.7113 0 10.3766 0L6.77823 0.502097C6.52719 0.502097 6.35982 0.753141 6.35982 1.08787L7.28036 7.53138C7.28036 7.78243 7.11299 8.03347 6.86195 8.11715L0.418411 9.03766C0.167364 9.03766 0 9.2887 0 9.62343L0.502072 13.2218C0.502072 13.4728 0.753129 13.6402 1.08786 13.6402L7.53139 12.7197C7.78244 12.7197 8.0335 12.887 8.11718 13.1381L9.03766 19.5816C9.03766 19.8326 9.28872 20 9.62345 20L13.2218 19.4979C13.4728 19.4142 13.6402 19.1632 13.6402 18.9121Z" fill="#FDD08D"/>
</svg>
